# xmcd
#
# Track frame offsets: 
#        150
#        24598
#        42597
#        65850
#        89089
#        118007
#        139941
#        165230
#        188373
#        231761
#        254571
#
# Disc length: 3738 seconds
#
# Revision: 0
# Processed by: cddbd v1.5.2PL0 Copyright (c) Steve Scherf et al.
# Submitted via: ExactAudioCopy v0.99pb4
#
DISCID=9b0e980b
DTITLE=Larry Garner - Here Today Gone Tomorrow
DYEAR=2008
DGENRE=Blues
TTITLE0=Bull Rider
TTITLE1=Heavy Pieces
TTITLE2=Here Today Gone Tomorrow
TTITLE3=For You Mr. King
TTITLE4=The Last Coke
TTITLE5=Raised In The Country
TTITLE6=Show Me That You Love Me
TTITLE7=Someplace For Evil
TTITLE8=Keep Singing The Blues
TTITLE9=Champagne And Reefer
TTITLE10=Funk It Up
EXTD=
EXTT0=
EXTT1=
EXTT2=
EXTT3=
EXTT4=
EXTT5=
EXTT6=
EXTT7=
EXTT8=
EXTT9=
EXTT10=
PLAYORDER=
